<svg xmlns="http://www.w3.org/2000/svg" width="58" height="58" viewBox="0 0 58 58" fill="none">
  <g clip-path="url(#clip0_1881_39917)">
    <path d="M12.2293 36.6671C12.2293 40.0399 9.50586 42.7609 6.14046 42.7609C2.77506 42.7609 0.046875 40.0352 0.046875 36.6671C0.046875 33.2942 2.77034 30.5732 6.13574 30.5732H12.2246V36.6671H12.2293ZM15.2738 36.6671C15.2738 33.2942 17.9972 30.5732 21.3626 30.5732C24.728 30.5732 27.4515 33.2989 27.4515 36.6671V51.9064C27.4515 55.2792 24.728 58.0002 21.3626 58.0002C17.9972 58.0002 15.2738 55.2745 15.2738 51.9064V36.6671Z" fill="#E01E5A"/>
    <path d="M21.363 12.1925C17.9928 12.1925 15.2741 9.46685 15.2741 6.09871C15.2741 2.72585 17.9976 0.00488281 21.363 0.00488281C24.7284 0.00488281 27.4518 2.73057 27.4518 6.09871V12.1925H21.363ZM21.363 15.2867C24.7331 15.2867 27.4518 18.0124 27.4518 21.3805C27.4518 24.7534 24.7284 27.4743 21.363 27.4743H6.08887C2.72347 27.4791 0 24.7534 0 21.3805C0 18.0077 2.72347 15.2867 6.08887 15.2867H21.363Z" fill="#36C5F0"/>
    <path d="M45.77 21.3804C45.77 18.0075 48.4935 15.2865 51.8589 15.2865C55.229 15.2865 57.9478 18.0122 57.9478 21.3804C57.9478 24.7532 55.2243 27.4742 51.8589 27.4742H45.77V21.3804ZM42.7256 21.3804C42.7256 24.7532 40.0021 27.4742 36.6367 27.4742C33.2666 27.4742 30.5479 24.7485 30.5479 21.3804V6.09383C30.5479 2.72096 33.2713 0 36.6367 0C40.0068 0 42.7256 2.72569 42.7256 6.09383V21.3804Z" fill="#2EB67D"/>
    <path d="M36.6367 45.8078C40.0068 45.8078 42.7256 48.5335 42.7256 51.9016C42.7256 55.2745 40.0021 57.9955 36.6367 57.9955C33.2666 57.9955 30.5479 55.2698 30.5479 51.9016V45.8078H36.6367ZM36.6367 42.7609C33.2666 42.7609 30.5479 40.0352 30.5479 36.6671C30.5479 33.2942 33.2713 30.5732 36.6367 30.5732H51.9108C55.2809 30.5732 57.9997 33.2989 57.9997 36.6671C57.9997 40.0399 55.2762 42.7609 51.9108 42.7609H36.6367Z" fill="#ECB22E"/>
  </g>
  <defs>
    <clipPath id="clip0_1881_39917">
      <rect width="58" height="58" fill="white"/>
    </clipPath>
  </defs>
</svg>