<svg xmlns="http://www.w3.org/2000/svg" width="20" height="20" viewBox="0 0 20 20" fill="currentColor">
  <path d="M8.4375 4.6875C8.4375 4.93473 8.36419 5.1764 8.22684 5.38196C8.08949 5.58752 7.89426 5.74774 7.66585 5.84235C7.43745 5.93696 7.18611 5.96171 6.94364 5.91348C6.70116 5.86525 6.47843 5.7462 6.30362 5.57138C6.1288 5.39657 6.00975 5.17384 5.96152 4.93136C5.91329 4.68889 5.93804 4.43755 6.03265 4.20915C6.12726 3.98074 6.28748 3.78552 6.49304 3.64816C6.6986 3.51081 6.94027 3.4375 7.1875 3.4375C7.51902 3.4375 7.83696 3.5692 8.07138 3.80362C8.3058 4.03804 8.4375 4.35598 8.4375 4.6875ZM12.8125 5.9375C13.0597 5.9375 13.3014 5.86419 13.507 5.72684C13.7125 5.58949 13.8727 5.39426 13.9674 5.16585C14.062 4.93745 14.0867 4.68611 14.0385 4.44364C13.9903 4.20116 13.8712 3.97843 13.6964 3.80362C13.5216 3.6288 13.2988 3.50975 13.0564 3.46152C12.8139 3.41329 12.5626 3.43804 12.3341 3.53265C12.1057 3.62726 11.9105 3.78748 11.7732 3.99304C11.6358 4.1986 11.5625 4.44027 11.5625 4.6875C11.5625 5.01902 11.6942 5.33696 11.9286 5.57138C12.163 5.8058 12.481 5.9375 12.8125 5.9375ZM7.1875 8.75C6.94027 8.75 6.6986 8.82331 6.49304 8.96066C6.28748 9.09802 6.12726 9.29324 6.03265 9.52165C5.93804 9.75005 5.91329 10.0014 5.96152 10.2439C6.00975 10.4863 6.1288 10.7091 6.30362 10.8839C6.47843 11.0587 6.70116 11.1778 6.94364 11.226C7.18611 11.2742 7.43745 11.2495 7.66585 11.1549C7.89426 11.0602 8.08949 10.9 8.22684 10.6945C8.36419 10.4889 8.4375 10.2472 8.4375 10C8.4375 9.66848 8.3058 9.35054 8.07138 9.11612C7.83696 8.8817 7.51902 8.75 7.1875 8.75ZM12.8125 8.75C12.5653 8.75 12.3236 8.82331 12.118 8.96066C11.9125 9.09802 11.7523 9.29324 11.6577 9.52165C11.563 9.75005 11.5383 10.0014 11.5865 10.2439C11.6348 10.4863 11.7538 10.7091 11.9286 10.8839C12.1034 11.0587 12.3262 11.1778 12.5686 11.226C12.8111 11.2742 13.0624 11.2495 13.2909 11.1549C13.5193 11.0602 13.7145 10.9 13.8518 10.6945C13.9892 10.4889 14.0625 10.2472 14.0625 10C14.0625 9.66848 13.9308 9.35054 13.6964 9.11612C13.462 8.8817 13.144 8.75 12.8125 8.75ZM7.1875 14.0625C6.94027 14.0625 6.6986 14.1358 6.49304 14.2732C6.28748 14.4105 6.12726 14.6057 6.03265 14.8341C5.93804 15.0626 5.91329 15.3139 5.96152 15.5564C6.00975 15.7988 6.1288 16.0216 6.30362 16.1964C6.47843 16.3712 6.70116 16.4903 6.94364 16.5385C7.18611 16.5867 7.43745 16.562 7.66585 16.4674C7.89426 16.3727 8.08949 16.2125 8.22684 16.007C8.36419 15.8014 8.4375 15.5597 8.4375 15.3125C8.4375 14.981 8.3058 14.663 8.07138 14.4286C7.83696 14.1942 7.51902 14.0625 7.1875 14.0625ZM12.8125 14.0625C12.5653 14.0625 12.3236 14.1358 12.118 14.2732C11.9125 14.4105 11.7523 14.6057 11.6577 14.8341C11.563 15.0626 11.5383 15.3139 11.5865 15.5564C11.6348 15.7988 11.7538 16.0216 11.9286 16.1964C12.1034 16.3712 12.3262 16.4903 12.5686 16.5385C12.8111 16.5867 13.0624 16.562 13.2909 16.4674C13.5193 16.3727 13.7145 16.2125 13.8518 16.007C13.9892 15.8014 14.0625 15.5597 14.0625 15.3125C14.0625 14.981 13.9308 14.663 13.6964 14.4286C13.462 14.1942 13.144 14.0625 12.8125 14.0625Z" />
</svg>